<?xml version="1.0" encoding="UTF-8" standalone="no"?>
<svg
   xmlns:dc="http://purl.org/dc/elements/1.1/"
   xmlns:cc="http://creativecommons.org/ns#"
   xmlns:rdf="http://www.w3.org/1999/02/22-rdf-syntax-ns#"
   xmlns:svg="http://www.w3.org/2000/svg"
   xmlns="http://www.w3.org/2000/svg"
   xmlns:sodipodi="http://sodipodi.sourceforge.net/DTD/sodipodi-0.dtd"
   xmlns:inkscape="http://www.inkscape.org/namespaces/inkscape"
   aria-hidden="true"
   focusable="false"
   data-prefix="fas"
   data-icon="film"
   class="svg-inline--fa fa-film fa-w-16"
   role="img"
   viewBox="0 0 1920 1080"
   version="1.1"
   id="svg4"
   sodipodi:docname="splash.svg"
   inkscape:version="0.92.4 (5da689c313, 2019-01-14)"
   inkscape:export-filename="/home/amcolash/Desktop/pirateFlix-cordova/res/screen/android/splash-land.png"
   inkscape:export-xdpi="96"
   inkscape:export-ydpi="96"
   width="1920"
   height="1080">
  <metadata
     id="metadata10">
    <rdf:RDF>
      <cc:Work
         rdf:about="">
        <dc:format>image/svg+xml</dc:format>
        <dc:type
           rdf:resource="http://purl.org/dc/dcmitype/StillImage" />
        <dc:title />
      </cc:Work>
    </rdf:RDF>
  </metadata>
  <defs
     id="defs8">
    <clipPath
       clipPathUnits="userSpaceOnUse"
       id="clipPath1318">
      <circle
         style="opacity:1;fill:#1faa00;fill-opacity:1;stroke:none;stroke-width:28.60335159;stroke-linecap:round;stroke-linejoin:round;stroke-miterlimit:4;stroke-dasharray:none;stroke-opacity:1;paint-order:fill markers stroke"
         id="circle1320"
         cx="256"
         cy="256"
         r="256" />
    </clipPath>
    <clipPath
       clipPathUnits="userSpaceOnUse"
       id="clipPath1322">
      <circle
         style="opacity:1;fill:#1faa00;fill-opacity:1;stroke:none;stroke-width:28.60335159;stroke-linecap:round;stroke-linejoin:round;stroke-miterlimit:4;stroke-dasharray:none;stroke-opacity:1;paint-order:fill markers stroke"
         id="circle1324"
         cx="256"
         cy="256"
         r="256" />
    </clipPath>
    <clipPath
       clipPathUnits="userSpaceOnUse"
       id="clipPath1326">
      <circle
         style="opacity:1;fill:#1faa00;fill-opacity:1;stroke:none;stroke-width:28.60335159;stroke-linecap:round;stroke-linejoin:round;stroke-miterlimit:4;stroke-dasharray:none;stroke-opacity:1;paint-order:fill markers stroke"
         id="circle1328"
         cx="256"
         cy="256"
         r="256" />
    </clipPath>
  </defs>
  <sodipodi:namedview
     pagecolor="#ffffff"
     bordercolor="#666666"
     borderopacity="1"
     objecttolerance="10"
     gridtolerance="10"
     guidetolerance="10"
     inkscape:pageopacity="0"
     inkscape:pageshadow="2"
     inkscape:window-width="1859"
     inkscape:window-height="1025"
     id="namedview6"
     showgrid="false"
     inkscape:zoom="0.70710678"
     inkscape:cx="1036.7506"
     inkscape:cy="771.01984"
     inkscape:window-x="61"
     inkscape:window-y="27"
     inkscape:window-maximized="1"
     inkscape:current-layer="svg4" />
  <rect
     style="fill:#444444;fill-opacity:1;stroke:none;stroke-width:1095.76220703;stroke-miterlimit:4;stroke-dasharray:none;stroke-opacity:1"
     id="rect820"
     width="1920"
     height="1080"
     x="0"
     y="0" />
  <rect
     style="opacity:1;fill:#64dd17;fill-opacity:1;stroke:none;stroke-width:4.91835022;stroke-linecap:round;stroke-linejoin:round;stroke-miterlimit:4;stroke-dasharray:none;stroke-opacity:1;paint-order:fill markers stroke"
     id="rect837"
     width="512"
     height="512"
     x="0"
     y="0"
     clip-path="url(#clipPath1326)"
     transform="matrix(1.0038964,0,0,1.0038964,703.00252,283.00252)" />
  <path
     style="opacity:1;fill:#444444;fill-opacity:1;stroke:none;stroke-width:6.33414555;stroke-linecap:round;stroke-linejoin:round;stroke-miterlimit:4;stroke-dasharray:none;stroke-opacity:1;paint-order:fill markers stroke"
     d="m 112.1582,149 c -5.54,0 -10,4.46 -10,10 v 194 c 0,5.54 4.46,10 10,10 h 287.6836 c 5.54,0 10,-4.46 10,-10 V 159 c 0,-5.54 -4.46,-10 -10,-10 z m 9.29297,6.97266 h 11 c 2.216,0 4,1.784 4,4 v 11 c 0,2.216 -1.784,4 -4,4 h -11 c -2.216,0 -4,-1.784 -4,-4 v -11 c 0,-2.216 1.784,-4 4,-4 z m 32.26367,0 h 11 c 2.216,0 4,1.784 4,4 v 11 c 0,2.216 -1.784,4 -4,4 h -11 c -2.216,0 -4,-1.784 -4,-4 v -11 c 0,-2.216 1.784,-4 4,-4 z m 32.26172,0 h 11 c 2.216,0 4,1.784 4,4 v 11 c 0,2.216 -1.784,4 -4,4 h -11 c -2.216,0 -4,-1.784 -4,-4 v -11 c 0,-2.216 1.784,-4 4,-4 z m 32.26172,0 h 11 c 2.216,0 4,1.784 4,4 v 11 c 0,2.216 -1.784,4 -4,4 h -11 c -2.216,0 -4,-1.784 -4,-4 v -11 c 0,-2.216 1.784,-4 4,-4 z m 32.26172,0 h 11 c 2.216,0 4,1.784 4,4 v 11 c 0,2.216 -1.784,4 -4,4 h -11 c -2.216,0 -4,-1.784 -4,-4 v -11 c 0,-2.216 1.784,-4 4,-4 z m 32.26172,0 h 11 c 2.216,0 4,1.784 4,4 v 11 c 0,2.216 -1.784,4 -4,4 h -11 c -2.216,0 -4,-1.784 -4,-4 v -11 c 0,-2.216 1.784,-4 4,-4 z m 32.26172,0 h 11 c 2.216,0 4,1.784 4,4 v 11 c 0,2.216 -1.784,4 -4,4 h -11 c -2.216,0 -4,-1.784 -4,-4 v -11 c 0,-2.216 1.784,-4 4,-4 z m 32.26172,0 h 11 c 2.216,0 4,1.784 4,4 v 11 c 0,2.216 -1.784,4 -4,4 h -11 c -2.216,0 -4,-1.784 -4,-4 v -11 c 0,-2.216 1.784,-4 4,-4 z m 32.26367,0 h 11 c 2.216,0 4,1.784 4,4 v 11 c 0,2.216 -1.784,4 -4,4 h -11 c -2.216,0 -4,-1.784 -4,-4 v -11 c 0,-2.216 1.784,-4 4,-4 z M 119.5,182.11133 h 273 c 1.108,0 2,0.892 2,2 v 143.77734 c 0,1.108 -0.892,2 -2,2 h -273 c -1.108,0 -2,-0.892 -2,-2 V 184.11133 c 0,-1.108 0.892,-2 2,-2 z m 94.33008,20.39453 c -2.62397,-0.0608 -4.7842,2.04915 -4.78516,4.67383 V 256 304.82031 c 2.5e-4,3.59927 3.89593,5.84924 7.01367,4.05078 l 42.2793,-24.41015 42.2793,-24.41016 c 3.11914,-1.79985 3.11914,-6.30171 0,-8.10156 l -42.2793,-24.41016 -42.2793,-24.41015 c -0.67892,-0.39107 -1.44521,-0.60532 -2.22851,-0.62305 z M 121.45117,336.875 h 11 c 2.216,0 4,1.784 4,4 v 11 c 0,2.216 -1.784,4 -4,4 h -11 c -2.216,0 -4,-1.784 -4,-4 v -11 c 0,-2.216 1.784,-4 4,-4 z m 32.26367,0 h 11 c 2.216,0 4,1.784 4,4 v 11 c 0,2.216 -1.784,4 -4,4 h -11 c -2.216,0 -4,-1.784 -4,-4 v -11 c 0,-2.216 1.784,-4 4,-4 z m 32.26172,0 h 11 c 2.216,0 4,1.784 4,4 v 11 c 0,2.216 -1.784,4 -4,4 h -11 c -2.216,0 -4,-1.784 -4,-4 v -11 c 0,-2.216 1.784,-4 4,-4 z m 32.26172,0 h 11 c 2.216,0 4,1.784 4,4 v 11 c 0,2.216 -1.784,4 -4,4 h -11 c -2.216,0 -4,-1.784 -4,-4 v -11 c 0,-2.216 1.784,-4 4,-4 z m 32.26172,0 h 11 c 2.216,0 4,1.784 4,4 v 11 c 0,2.216 -1.784,4 -4,4 h -11 c -2.216,0 -4,-1.784 -4,-4 v -11 c 0,-2.216 1.784,-4 4,-4 z m 32.26172,0 h 11 c 2.216,0 4,1.784 4,4 v 11 c 0,2.216 -1.784,4 -4,4 h -11 c -2.216,0 -4,-1.784 -4,-4 v -11 c 0,-2.216 1.784,-4 4,-4 z m 32.26172,0 h 11 c 2.216,0 4,1.784 4,4 v 11 c 0,2.216 -1.784,4 -4,4 h -11 c -2.216,0 -4,-1.784 -4,-4 v -11 c 0,-2.216 1.784,-4 4,-4 z m 32.26172,0 h 11 c 2.216,0 4,1.784 4,4 v 11 c 0,2.216 -1.784,4 -4,4 h -11 c -2.216,0 -4,-1.784 -4,-4 v -11 c 0,-2.216 1.784,-4 4,-4 z m 32.26367,0 h 11 c 2.216,0 4,1.784 4,4 v 11 c 0,2.216 -1.784,4 -4,4 h -11 c -2.216,0 -4,-1.784 -4,-4 v -11 c 0,-2.216 1.784,-4 4,-4 z"
     id="rect839"
     clip-path="url(#clipPath1318)"
     inkscape:connector-curvature="0"
     transform="matrix(1.136722,0,0,1.136722,668.99917,248.99917)" />
</svg>
